<?xml version="1.0" encoding="utf-8"?>
<!-- Generator: Adobe Illustrator 22.0.1, SVG Export Plug-In . SVG Version: 6.00 Build 0)  -->
<svg version="1.1" id="Layer_1" xmlns="http://www.w3.org/2000/svg" xmlns:xlink="http://www.w3.org/1999/xlink" x="0px" y="0px"
	 viewBox="0 0 170 65" style="enable-background:new 0 0 170 65;" xml:space="preserve">
<style type="text/css">
	.st0{fill:#FFFFFF;}
</style>
<g>
	<g>
		<g>
			<path class="st0" d="M15.1,37.8h-1.9V24.6h1.9V30c0.3-0.1,0.5-0.2,0.8-0.3c0.3-0.1,0.6-0.1,0.9-0.1c0.2,0,0.5,0,0.8,0.1
				c0.4,0,0.8,0.1,1.2,0.1s0.8,0.1,1.3,0.1c0.4,0,0.8,0.1,1.1,0.1c0.3,0,0.6,0,0.9-0.1c0.3,0,0.6-0.1,0.9-0.3v-5.1h1.9v13.2H23v-6.2
				c-0.3,0.1-0.6,0.2-0.9,0.3c-0.3,0-0.6,0.1-0.9,0.1s-0.6,0-1.1-0.1c-0.4,0-0.8-0.1-1.2-0.1s-0.8-0.1-1.2-0.1s-0.6-0.1-0.8-0.1
				c-0.3,0-0.6,0-0.8,0.1c-0.3,0.1-0.6,0.1-0.8,0.3v5.9H15.1z"/>
			<path class="st0" d="M30.4,24.3h2.1l6.4,13.5h-2.2l-0.9-1.9h-4c-0.6,0-1.1,0-1.6,0.1s-0.9,0.2-1.2,0.3c-0.3,0.1-0.6,0.3-0.8,0.4
				c-0.2,0.2-0.3,0.3-0.4,0.4l-0.3,0.6h-2.1L31.1,26L30.4,24.3z M34.9,33.9L32,28.3l-2.9,6.3c0.2-0.2,0.6-0.4,1.2-0.5
				c0.5-0.1,1.3-0.2,2.2-0.2H34.9z"/>
			<path class="st0" d="M54.4,24.6l-4.2,13.2h-2.1L45.5,30L43,37.8h-2.1l-4.5-13.2h2l3.5,9.9l2.5-7.8l-0.7-2.1h2l3.3,9.9l3.3-9.9
				H54.4z"/>
			<path class="st0" d="M56.8,24.3h2.1l6.4,13.5h-2.2l-0.9-1.9h-4c-0.6,0-1.1,0-1.6,0.1s-0.9,0.2-1.2,0.3s-0.6,0.3-0.8,0.4
				c-0.2,0.2-0.3,0.3-0.4,0.4l-0.3,0.6h-2.1L57.5,26L56.8,24.3z M61.4,33.9l-2.9-5.6l-2.9,6.4c0.2-0.2,0.6-0.4,1.2-0.5
				c0.5-0.1,1.3-0.2,2.2-0.2L61.4,33.9L61.4,33.9z"/>
			<path class="st0" d="M65.9,37.8V24.6h1.9v13.2H65.9z"/>
			<path class="st0" d="M70,37.8V24.6h1.9v13.2H70z"/>
			<path class="st0" d="M77.4,24.3h2.1l6.4,13.5h-2.2l-0.9-1.9h-4c-0.6,0-1.1,0-1.6,0.1s-0.9,0.2-1.2,0.3c-0.3,0.1-0.6,0.3-0.8,0.4
				c-0.2,0.2-0.3,0.3-0.4,0.4l-0.3,0.6h-2.1L78.1,26L77.4,24.3z M82,33.9l-2.9-5.6l-2.9,6.3c0.2-0.2,0.6-0.4,1.2-0.5
				c0.5-0.1,1.3-0.2,2.2-0.2H82z"/>
			<path class="st0" d="M85.4,24.6h2.5l8.5,10.1V24.6h1.9v13.2h-1.9l-7.6-9.1v9.1h-1.9V26.4L85.4,24.6z"/>
		</g>
		<g>
			<path class="st0" d="M129,34.2c0,0.7-0.1,1.2-0.4,1.7s-0.6,0.8-1,1.1s-0.9,0.5-1.5,0.6c-0.5,0.1-1.1,0.2-1.6,0.2h-6.7V24.6h6.7
				c0.6,0,1.1,0.1,1.6,0.2c0.5,0.2,0.9,0.4,1.2,0.7c0.3,0.3,0.6,0.7,0.8,1.1c0.2,0.4,0.3,1,0.3,1.5c0,0.6-0.1,1.1-0.3,1.5
				c-0.2,0.5-0.5,0.8-0.9,1.1c0.2,0.1,0.5,0.3,0.7,0.5c0.2,0.2,0.4,0.4,0.6,0.7s0.3,0.6,0.4,1C128.9,33.3,129,33.7,129,34.2z
				 M119.6,30.6c0.4-0.2,0.8-0.4,1.2-0.4c0.4-0.1,0.8-0.1,1.3-0.1h2.3c0.6,0,1.1-0.2,1.4-0.5c0.4-0.3,0.5-0.8,0.5-1.4
				s-0.2-1.1-0.5-1.3c-0.4-0.2-0.8-0.4-1.4-0.4h-4.8V30.6z M119.6,35.8h5c0.3,0,0.5,0,0.8-0.1s0.6-0.2,0.8-0.4
				c0.2-0.2,0.4-0.4,0.6-0.6c0.2-0.2,0.2-0.5,0.2-0.9s-0.1-0.7-0.2-1c-0.2-0.2-0.4-0.4-0.6-0.6c-0.2-0.1-0.5-0.2-0.8-0.3
				s-0.6-0.1-0.9-0.1h-2.3c-0.4,0-0.8,0-1.3,0.1c-0.4,0.1-0.8,0.2-1.2,0.4L119.6,35.8L119.6,35.8z"/>
			<path class="st0" d="M136.3,32.3h-1.5c-0.4,0-0.8,0-1.3,0.1c-0.4,0.1-0.8,0.2-1.2,0.4v5h-1.9V24.6h7c0.6,0,1.2,0.1,1.7,0.3
				c0.5,0.2,1,0.4,1.3,0.8c0.4,0.3,0.7,0.7,0.9,1.2s0.3,1,0.3,1.7c0,1-0.3,1.8-0.8,2.5c-0.5,0.6-1.3,1.1-2.3,1.3l1,2.1
				c0.2,0.3,0.4,0.6,0.6,0.7c0.2,0.2,0.3,0.3,0.4,0.5c0.1,0.1,0.3,0.2,0.4,0.2c0.2,0,0.3,0.1,0.6,0.1h0.6v2c-0.4,0-0.8,0-1.1,0
				c-0.4,0-0.8-0.1-1.1-0.2c-0.4-0.1-0.7-0.3-1-0.6s-0.6-0.7-0.9-1.2L136.3,32.3z M132.3,30.9c0.4-0.2,0.8-0.4,1.2-0.4
				c0.4-0.1,0.8-0.1,1.3-0.1h2.5c0.7,0,1.2-0.2,1.6-0.5c0.4-0.3,0.6-0.8,0.6-1.5c0-0.3-0.1-0.6-0.2-0.9c-0.1-0.2-0.3-0.4-0.5-0.6
				s-0.4-0.3-0.7-0.3c-0.3-0.1-0.6-0.1-0.9-0.1h-5L132.3,30.9L132.3,30.9z"/>
			<path class="st0" d="M156.8,31.2c0,1-0.2,1.9-0.6,2.7c-0.4,0.8-0.9,1.6-1.6,2.2c-0.7,0.6-1.4,1.1-2.3,1.5
				c-0.9,0.4-1.8,0.5-2.7,0.5c-1,0-1.9-0.2-2.8-0.5c-0.9-0.4-1.6-0.9-2.3-1.5c-0.6-0.6-1.1-1.4-1.5-2.3c-0.4-0.9-0.6-1.8-0.6-2.8
				s0.2-1.9,0.6-2.7c0.4-0.8,0.9-1.6,1.6-2.2c0.7-0.6,1.4-1.1,2.3-1.4c0.9-0.3,1.8-0.5,2.7-0.5c1,0,1.9,0.2,2.8,0.5
				c0.9,0.4,1.6,0.9,2.3,1.5c0.6,0.6,1.2,1.4,1.5,2.2C156.7,29.3,156.8,30.2,156.8,31.2z M154.9,31.1c0-0.7-0.1-1.4-0.4-2
				c-0.3-0.6-0.7-1.1-1.1-1.6c-0.5-0.4-1-0.8-1.7-1c-0.6-0.2-1.3-0.4-2-0.4s-1.4,0.1-2.1,0.4c-0.6,0.2-1.2,0.6-1.7,1.1
				s-0.8,1-1.1,1.6s-0.4,1.3-0.4,2s0.1,1.4,0.4,2c0.3,0.6,0.7,1.1,1.2,1.6c0.5,0.4,1,0.8,1.7,1c0.6,0.2,1.3,0.4,2,0.4s1.4-0.1,2-0.4
				c0.6-0.3,1.2-0.6,1.6-1.1c0.5-0.5,0.8-1,1.1-1.6C154.8,32.5,154.9,31.8,154.9,31.1z"/>
			<path class="st0" d="M168,33.8c0,0.7-0.2,1.3-0.5,1.8s-0.7,1-1.2,1.4s-1.1,0.7-1.9,0.9c-0.7,0.2-1.5,0.3-2.3,0.3
				c-0.5,0-1-0.1-1.5-0.2c-0.5-0.1-1-0.3-1.5-0.5s-0.9-0.5-1.3-0.9c-0.4-0.3-0.8-0.7-1.1-1.1l1.4-1.3c0.2,0.2,0.4,0.4,0.6,0.7
				c0.2,0.2,0.5,0.5,0.9,0.7c0.3,0.2,0.7,0.4,1.1,0.5c0.4,0.1,0.9,0.2,1.4,0.2s1,0,1.4-0.1s0.9-0.2,1.3-0.4c0.4-0.2,0.7-0.4,0.9-0.7
				s0.3-0.7,0.3-1.1c0-0.5-0.1-0.9-0.3-1.2s-0.5-0.5-0.9-0.6S164,32,163.5,32s-0.9,0-1.4,0c-1.6,0-2.8-0.3-3.6-0.9s-1.2-1.4-1.2-2.6
				c0-0.5,0.1-1,0.4-1.6c0.2-0.5,0.6-0.9,1-1.3s0.9-0.7,1.5-0.9c0.6-0.2,1.3-0.3,2-0.3c1,0,1.9,0.2,2.8,0.5c0.9,0.3,1.7,0.9,2.5,1.6
				l-1.2,1.4c-0.4-0.3-0.7-0.5-1-0.7s-0.6-0.4-0.9-0.5c-0.3-0.1-0.7-0.2-1-0.3c-0.3-0.1-0.7-0.1-1.2-0.1c-0.4,0-0.7,0.1-1.1,0.2
				c-0.3,0.1-0.6,0.3-0.9,0.5c-0.2,0.2-0.4,0.4-0.6,0.7c-0.1,0.3-0.2,0.5-0.2,0.8c0,0.2,0,0.4,0.1,0.6s0.2,0.3,0.4,0.5
				c0.2,0.1,0.5,0.3,0.9,0.3c0.4,0.1,0.8,0.1,1.4,0.1c1.2,0,2.1,0.1,2.9,0.3s1.3,0.4,1.8,0.8c0.4,0.3,0.7,0.8,0.9,1.2
				C167.9,32.6,168,33.2,168,33.8z"/>
		</g>
	</g>
	<g>
		<path class="st0" d="M62.8,43.5c0.3,0,0.5,0,0.8-0.2c0.1-0.1,0.4-0.3,0.7-0.7c0.2-0.2,0.2-0.4,0.1-0.6c-0.1-0.2-0.4-0.5-0.8-0.6
			c-0.1,0-0.1,0-0.1,0.1c-0.3,0.4-0.8,1.2-1.2,1.6c-0.1,0.1-0.1,0.2,0,0.3C62.4,43.4,62.7,43.5,62.8,43.5z"/>
		<path class="st0" d="M65.2,46.5c1-0.3,1.5-0.7,1.5-1.2c0-0.2-0.1-0.5-0.4-1C66,44,65.8,44,65.8,44c-1,0.6-2.6,0.8-2.6,2.2
			c0,0.3,0.1,0.5,0.2,0.7l0,0V47c-1.3,1.7-2.2,2.3-2.9,2.4c0.1-0.8,1.3-2.4,2-3.3c0.5-0.7,0.4-1.1,0.1-1.3c-0.2-0.1-0.6-0.2-1-0.3
			c-0.2-0.1-0.2,0-0.4,0.3c-0.2,0.4-0.7,1.2-1.6,2.3c-0.9,1.2-1.1,1.8-0.8,2.4c0.1,0.2,0.3,0.4,0.5,0.6c0.3,0.2,0.6,0.3,0.9,0.3
			c1.1,0,2.9-2.1,3.5-3.1l0,0c0.2,0.3,0.5,0.4,0.5,0.7c0,0.7-1.3,1.6-2.2,1.9c-0.1,0-0.1,0.3,0.2,0.5c0.3,0.3,0.7,0.5,1.2,0.5
			s0.9-0.2,1.2-0.4c0.6-0.4,0.8-0.9,0.8-1.4c0-1-0.9-1.4-0.9-1.9C64.3,46.8,64.6,46.7,65.2,46.5z"/>
		<path class="st0" d="M92,48.2c-0.6,0.4-1.1,0.6-1.6,0.7c-0.1-0.5,0.3-1.4,1.3-3c1-1.8,2.2-3.3,2.8-4.4c0.4-0.7,0.4-1.2,0-1.5
			c-0.2-0.1-0.6-0.3-0.9-0.5c-0.1-0.1-0.2,0-0.3,0.1c-0.8,1.6-2.1,3.3-3.3,5.3c-0.2-0.3-0.3-0.4-0.6-0.4c-1,0-2.3,0.5-3.2,1.4
			c-0.7,0.7-1.1,1.2-1.2,1.7c-0.8,0.9-1.5,1.3-2.1,1.5c0.2-0.7,1.1-1.9,1.5-2.7c0.2-0.5,0.2-0.8-0.1-1.1c-0.4-0.2-0.7-0.3-0.9-0.3
			c-0.3,0-1,0.3-1.8,0.7c0.1-0.3,0-0.6-0.2-0.8c-0.4-0.4-0.9-0.6-1.2-0.6c-0.1,0-0.2,0-0.2,0.1c-0.2,0.3-0.9,1.3-1.8,2.5
			c-0.2,0.2-0.3,0.4-0.4,0.6c-0.8,0.9-1.3,1.3-1.9,1.4c0-0.4,0.3-1,0.6-1.7c0.5-1,0.6-1.3,0.6-1.5s-0.1-0.3-0.5-0.5
			s-0.7-0.3-0.9-0.3c-0.2,0-0.2,0.1-0.3,0.2c-0.2-0.4-0.6-0.8-1.1-0.8c-0.9,0-2.3,0.8-3.3,2c-0.3,0.4-0.5,0.7-0.6,1.1
			c-1,1.2-1.8,1.6-2.5,1.8c0-0.3,0.3-0.9,0.9-1.9c0.9-1.3,3.1-4.7,3.9-5.9c0.6-1,0.4-1.3,0.1-1.6c-0.2-0.1-0.4-0.3-0.6-0.4
			c-0.2-0.1-0.3-0.1-0.4,0.1c-1.2,1.7-2.8,4-5,7.4c-0.6,1-0.9,1.6-0.9,2.1c0,0.3,0.1,0.5,0.3,0.8c0.2,0.3,0.5,0.5,1,0.5
			c1.1,0,2.1-1,2.9-2c0,0.2,0.1,0.4,0.2,0.5c0.4,0.6,1,1.1,1.6,1.1c0.5,0,1.1-0.4,1.9-1.6c-0.3,1.3,0.3,1.7,0.9,1.7
			c0.7,0,1.5-0.4,2.2-1.2c0,0.4,0.2,0.6,0.5,0.8c0.2,0.2,0.5,0.3,0.8,0.3c0.1,0,0.2-0.1,0.4-0.2c0.4-0.4,0.9-1.1,1.6-2.2
			c0.8-0.7,1.6-1.3,2.2-1.8c-0.5,0.7-1.2,1.4-1.6,2.2c-0.2,0.5-0.1,0.9,0.3,1.3c0.3,0.3,0.6,0.5,1,0.5c0.9,0,1.8-0.8,2.6-1.6
			c0,0.5,0.2,0.8,0.6,1.2c0.7,0.6,1.2,0.8,1.8,0.4c0.5-0.3,1-0.7,1.4-1.4c0,0.3,0.1,0.5,0.2,0.7c0.3,0.5,0.6,0.6,1,0.6
			c0.7,0,1.6-0.6,2.2-1.1C92,48.4,92,48.3,92,48C92.1,48.2,92.1,48.2,92,48.2z M72.2,49c-0.1-0.6,0.4-1.5,1.1-2.2
			c0.5-0.5,1.2-0.9,1.8-1.1C74,47.8,73.1,48.7,72.2,49z M88.7,47.2c-1,1.3-1.6,1.8-2.4,1.9c0.1-1.1,1.7-2.9,3-3.3
			C89.1,46.3,88.9,46.8,88.7,47.2z"/>
		<path class="st0" d="M110.1,44c0-0.1,0-0.4-0.2-0.4c-0.1,0-0.2,0.1-0.5,0.2c-0.8,0.5-1.6,0.9-2.4,1.6c0.2-0.7,0-0.9-0.2-1
			s-0.5-0.2-0.8-0.2c-0.2,0-0.3,0-0.3,0.1c-0.2,0.4-0.8,1.3-1.7,2.6c-0.1,0.1-0.2,0.3-0.3,0.4c-0.6,0.7-1.5,1.3-2.4,1.7
			c1.2-1.7,1.8-3,1.8-3.3c0-0.2-0.2-0.4-0.7-0.6c-0.3-0.1-0.5-0.1-0.7-0.1c0-0.1-0.1-0.2-0.1-0.3c-0.1-0.3-0.3-0.4-0.8-0.4
			c-1,0-2.3,0.5-3.3,1.3c-1,0.9-1.3,1.8-1.3,2.4c0,0.5,0.3,1,0.9,1.3c0.3,0.2,0.7,0.3,1,0.1c0.3-0.1,0.7-0.3,1.2-0.7
			c-0.2,0.4-0.5,0.7-0.7,1c-1.4,0.3-2.8,0.5-4,1.1c-1.1,0.5-1.8,1.3-1.8,2.2c0,0.3,0.2,0.7,0.4,0.9c0.2,0.2,0.8,0.4,1.3,0.4
			c0.8,0,2-0.4,3.4-1.5c0.9-0.7,1.8-1.8,2.7-3c1-0.4,1.8-0.9,2.4-1.4c0,0.1-0.1,0.2-0.1,0.4c0,0.3,0.1,0.5,0.5,0.8
			c0.3,0.2,0.6,0.3,0.8,0.3c0.2,0,0.3-0.1,1-1c1.7-2.4,3.2-3.7,4.6-4.7C110,44.3,110.1,44.2,110.1,44z M95.9,52.8
			c-0.6,0.4-1.3,0.7-1.9,0.9c0.1-1.4,1.5-2.1,3.9-2.8C97.2,51.7,96.5,52.4,95.9,52.8z M100.4,47.1c-0.8,0.9-1.7,1.4-2.5,1.6
			c0.3-1.1,1.9-2.8,3.2-3C100.9,46.1,100.7,46.6,100.4,47.1z"/>
		<path class="st0" d="M112.4,43.5c0.2,0,0.4,0,0.7-0.3c0.2-0.2,0.6-0.6,1-1c0.1-0.1,0-0.2-0.1-0.3c-0.2-0.1-0.5-0.3-0.9-0.4
			c-0.1,0-0.3,0.1-0.5,0.3c-0.3,0.3-0.6,0.8-0.9,1.3c-0.1,0.1-0.1,0.2,0,0.3C111.9,43.4,112.2,43.5,112.4,43.5z"/>
		<path class="st0" d="M120,48.1c-0.7,0.7-1.6,1.2-2.2,1.3c0-0.4,0.3-1.1,1.2-2.4c3.5-5.2,3.9-5.9,3.9-6.5c0-0.5-0.4-0.7-0.9-0.9
			c-0.1-0.1-0.2,0-0.3,0.1c-1.2,1.7-2.7,4-5,7.4c-0.1,0.1-0.1,0.2-0.2,0.3c-1.1,1.4-2,1.9-2.7,2c0-0.3,0.3-0.9,0.9-1.9
			c0.9-1.3,3.1-4.7,3.9-5.9c0.6-1,0.4-1.3,0.1-1.6c-0.2-0.1-0.4-0.3-0.6-0.4c-0.2-0.1-0.3-0.1-0.4,0.1c-1.2,1.7-2.8,4-5,7.4
			c-0.1,0.1-0.1,0.2-0.2,0.3c-1.2,1.5-2.1,1.9-2.7,1.9c0.2-0.5,0.7-1.3,1.5-2.5c0.5-0.7,0.8-1.3,0.8-1.6c0-0.6-0.9-0.6-1.3-0.6
			c-0.1,0-0.2,0-0.2,0.1c-0.3,0.4-1.1,1.4-1.7,2.4c-1.1,1.7-1.1,2.1-0.4,2.7c0.4,0.3,0.6,0.5,1.1,0.5c0.7,0,1.6-0.7,2.4-1.5
			c0,0.2-0.1,0.3-0.1,0.4c0,0.3,0.1,0.5,0.3,0.8c0.2,0.3,0.5,0.5,1,0.5c0.9,0,1.9-0.8,2.6-1.6c0,0.2-0.1,0.4-0.1,0.5
			c0,0.5,0.2,0.7,0.5,1c0.3,0.2,0.6,0.4,1,0.4c0.8,0,1.9-0.8,2.8-2c0.1-0.1,0.1-0.3,0.1-0.5C120.1,48.1,120.1,48,120,48.1z"/>
	</g>
	<g>
		<polygon class="st0" points="108.3,23.5 108.3,23.4 108.3,23.5 108.3,23.5 		"/>
		<polygon class="st0" points="110,22.8 110,22.8 110.4,22.5 		"/>
		<path class="st0" d="M105.8,24l0.1-0.2L105.8,24z"/>
		<polygon class="st0" points="107,22.6 106.9,22.7 106.7,23.1 106.9,22.7 		"/>
		<polygon class="st0" points="106.5,23.4 106.5,23.4 106.5,23.5 		"/>
		<path class="st0" d="M110.1,23.2l-0.2-0.3L110.1,23.2z"/>
		<polygon class="st0" points="110.1,23.1 110.1,23.2 110.1,23.2 110.1,23.2 		"/>
		<path class="st0" d="M104.8,23.1c-0.1-0.1-0.2-0.3-0.3-0.4C104.6,22.8,104.7,23,104.8,23.1z"/>
		<path class="st0" d="M105.2,23.6c-0.1-0.1-0.2-0.2-0.3-0.4C105,23.4,105.1,23.5,105.2,23.6z"/>
		<polygon class="st0" points="110.8,22.6 110.1,23.1 110.1,23.1 110.1,23.1 		"/>
		<polygon class="st0" points="106.5,22.9 106.7,22.5 106.7,22.5 		"/>
		<path class="st0" d="M105.8,23l-0.6-0.3L105.8,23z"/>
		<polygon class="st0" points="105.2,23.6 105.2,23.7 105.5,23.9 105.2,23.7 		"/>
		<polygon class="st0" points="109.4,22.2 109.4,22.2 108.7,23 		"/>
		<polygon class="st0" points="108.1,23.2 108.1,23.2 107.8,23.5 107.8,23.5 108.1,23.2 108.1,23.2 109.2,21.9 109.2,21.9 
			109.2,21.9 		"/>
		<polygon class="st0" points="110.3,21.2 110.1,21.4 110,21.5 110.1,21.4 		"/>
		<polygon class="st0" points="110.7,20.7 112.4,18.7 112.4,18.7 110.7,20.7 110.7,20.7 110.6,20.8 		"/>
		<polygon class="st0" points="107.3,22.2 108.3,20.5 107.3,22.2 107.2,22.3 107,22.6 107.2,22.3 		"/>
		<polygon class="st0" points="109.5,18.4 109.5,18.5 108.3,20.4 109.5,18.5 		"/>
		<polygon class="st0" points="110.5,16.8 110,17.5 110,17.6 110,17.5 		"/>
		<polygon class="st0" points="110.4,19.8 111.1,15.7 111.1,15.7 		"/>
		<polygon class="st0" points="103.9,21.8 103.9,21.8 105.2,22.7 		"/>
		<path class="st0" d="M103.8,21.9L103.8,21.9L103.8,21.9L103.8,21.9z"/>
		<path class="st0" d="M104.3,22.4c0-0.1-0.1-0.1-0.1-0.2C104.2,22.3,104.2,22.4,104.3,22.4z"/>
		<polygon class="st0" points="112.5,18.8 112.5,18.8 111.1,21.7 		"/>
		<path class="st0" d="M105.6,20.8l-2.3-2.4L105.6,20.8z"/>
		<path class="st0" d="M110.2,20.7l0.1-0.4L110.2,20.7z"/>
		<path class="st0" d="M111.1,15.7L111.1,15.7L111.1,15.7z"/>
		<polygon class="st0" points="105.6,20.8 105.6,20.8 105.8,21.6 		"/>
		<path class="st0" d="M109.5,13.1l-1.2,3L109.5,13.1z"/>
		<polygon class="st0" points="106.3,18.1 106.3,18.1 104.7,15.9 104.7,15.9 		"/>
		<polygon class="st0" points="104.7,15.9 104.7,15.9 105.3,18.2 		"/>
		<polygon class="st0" points="106.5,20 106.5,19.9 106.3,18.3 106.5,19.9 		"/>
		<polygon class="st0" points="107.9,16.1 107.9,16.1 106.9,18.7 		"/>
		<path class="st0" d="M109.7,17.4v-1.6V17.4z"/>
		<polygon class="st0" points="103.3,18.4 103.3,18.4 105.4,22.4 105.5,22.6 105.4,22.4 		"/>
		<polygon class="st0" points="106.2,23.3 106.2,23.2 105.8,21.7 106.2,23.2 		"/>
		<path class="st0" d="M106.7,22.5l-0.1-0.7L106.7,22.5z"/>
		<g id="XMLID_4_">
			<g>
				<polygon class="st0" points="108,20.3 107,22 107,22 107,21.9 107,21.8 106.8,19.9 107.2,18.9 108.3,16.2 108.3,16.1 
					108.3,16.1 109.5,13.1 109.6,12.8 109.7,15.8 109.7,17.4 109.7,17.4 109.3,18.2 109.2,18.2 108,20.2 108,20.2 				"/>
				<polygon class="st0" points="106.7,18 106.2,12.9 107.9,16 107.9,16.1 106.9,18.7 106.7,19.1 106.7,18.9 106.7,18.1 				"/>
				<path class="st0" d="M107,22l1-1.7v-0.1l0,0l1.2-2v-0.1l0.5-0.8l0,0v-1.5l-0.1-3.1l-0.1,0.3l-1.2,3l0,0v0.1l-1.1,2.7l-0.4,1
					l0.2,1.9v0.1V22L107,22z M106.2,12.9l0.4,5.1v0.1l0.1,0.7v0.3l0.2-0.4l1-2.6l0,0L106.2,12.9z M105.3,18.2l0.6,2.4v0.1l0.2,0.6
					v0.1l0.3,1.3l0.2-0.4l0,0l0,0l-0.1-0.6v-0.1l-0.1-1.7v-0.2l-0.1-1.6v-0.2l0,0l-1.6-2.2L105.3,18.2z M104.1,14.5
					c0-0.1,0.1-0.1,0.1-0.1l1.9,2.7c0,0.1,0.1,0,0.1,0l-0.5-5.5c0-0.1,0.1-0.1,0.1,0l2.1,3.9c0,0.1,0.1,0,0.1,0l1.6-4.1
					c0-0.1,0.1-0.1,0.1,0l0.1,5.2c0,0.1,0.1,0.1,0.1,0l1.5-2.4c0-0.1,0.1,0,0.1,0l-1,5.7c0,0.1,0.1,0.1,0.1,0.1l3-3.5
					c0.1-0.1,0.1,0,0.1,0.1l-2.3,4.8c0,0.1,0,0.1,0.1,0.1l2.2-1.7c0.1,0,0.1,0,0.1,0.1l-2.2,3V23l-0.9,1.3v0.1l0,0
					c-0.1,0-0.1-0.1-0.2-0.1c0,0-0.1,0-0.1-0.1l0.2-0.2v-0.1l0.9-1.3v-0.1l1-1.4l-1.2,0.9h-0.1l-0.3,0.2l-0.1,0.1l-0.2,0.1l-0.7,0.6
					l0,0h-0.1l0,0l0,0l-0.2-0.3l0,0l0,0l0,0l0,0l0,0l0.4-0.3l0.5-0.4l0.2-0.4v-0.1l1.4-2.9l0.2-0.5l-0.3,0.4l-1.7,2v0.1l-0.1,0.1
					l-0.1,0.1l0,0l-0.1,0.1l-0.2,0.2l-0.2,0.2l-0.1,0.1l-0.6,0.7l0,0l0,0l-0.7,0.8l-0.4,0.4l0,0l0,0l0,0h-0.1c-0.1,0-0.2,0-0.4,0
					l0.3-0.3v-0.1l1-1.2l0,0l0,0l0.6-0.7l0.1-0.1l0.3-0.4l0,0l0.1-0.3v-0.1l0.1-0.4l0.7-4.1l-0.6,1.1l-0.5,0.8v0.1l0,0l-0.4,0.7v0.1
					l-1.2,2v0.1l-1,1.7v0.1l-0.2,0.4l-0.1,0.1l-0.2,0.4l-0.1,0.2l0,0l0,0v0.1l-0.2,0.3c-0.1,0-0.3,0.1-0.4,0.1l0,0c0,0,0,0-0.1,0
					h-0.1l0.1-0.1v-0.1l0.3-0.5l0,0l-0.4-1.5v-0.1l-0.2-0.8l0,0l0,0l-2.3-2.4l2.1,4l0.1,0.2l0.2,0.5l-0.6-0.4l-1.3-0.9l-0.4-0.3
					c0.1,0.1,0.2,0.2,0.3,0.4l0,0c0.1,0.1,0.2,0.2,0.3,0.4c0,0.1,0.1,0.1,0.1,0.2c0.1,0.1,0.1,0.2,0.2,0.2c0.1,0.1,0.2,0.3,0.3,0.4
					l0.1,0.1c0.1,0.1,0.2,0.3,0.3,0.4l0.1,0.1l0.2,0.3l0.1,0.2c-0.1,0-0.2,0.1-0.3,0.2l0,0l-0.3-0.4v-0.1c-0.9-1.1-2.2-2.7-2.4-3
					l-0.8-1l2.8,1.9c0.1,0,0.1,0,0.1-0.1l-2.6-5c0-0.1,0.1-0.1,0.1-0.1l3,3.2c0,0.1,0.1,0,0.1-0.1L104.1,14.5z"/>
			</g>
		</g>
		<path class="st0" d="M108.3,23.5c0.3,0,0.6,0,0.9,0.1c0.2,0,0.4,0.1,0.6,0.2c0.1,0,0.2,0.1,0.4,0.1c0.1,0.1,0.3,0.1,0.4,0.2V24
			v-0.1l0.9-1.3v-0.1l1-1.4l0,0l-1.2,0.9h-0.1l-0.3,0.2l-0.1,0.1l-0.2,0.1l-0.7,0.6l0,0h-0.1l0,0l0,0l0,0l-0.2-0.3l0,0l0,0l0,0l0,0
			l0,0l0.4-0.3l0.5-0.4l0.2-0.4v-0.1l1.4-2.9l0.2-0.5l-0.3,0.4l-1.7,2v0.1l-0.1,0.1l-0.1,0.1l0,0l-0.1,0.1l-0.2,0.2l-0.2,0.2
			l-0.1,0.1l-0.6,0.7l0,0l0,0l-0.7,0.8L108.3,23.5L108.3,23.5L108.3,23.5L108.3,23.5z"/>
		<path class="st0" d="M107.5,23.5L107.5,23.5h0.2c0.1,0,0.1,0,0.1,0l0.3-0.3v-0.1l1-1.2l0,0l0,0l0.6-0.7l0.1-0.1l0.3-0.4l0,0
			l0.1-0.3v-0.1l0.1-0.4l0.7-4.1l0,0l0,0l0,0l0,0l-0.6,1.1l-0.5,0.8v0.1l0,0l-0.4,0.7v0.1l-1.2,2v0.1l-1,1.7v0.1l-0.2,0.4L107,23
			l-0.2,0.4l-0.1,0.2l0,0l0,0v0.1l-0.2,0.3l0,0C106.7,23.6,107.1,23.6,107.5,23.5z"/>
		<polygon class="st0" points="104.7,15.9 104.7,15.9 104.7,15.9 104.7,15.9 		"/>
		<polygon class="st0" points="106.7,22.5 106.6,21.8 106.6,21.7 106.5,20 106.5,19.9 106.3,18.3 106.3,18.1 106.3,18.1 104.7,15.9 
			105.3,18.2 105.9,20.6 105.9,20.8 106.1,21.4 106.1,21.5 106.5,22.9 106.5,22.9 106.7,22.5 		"/>
		<path class="st0" d="M105.9,23.8L105.9,23.8l0.3-0.6l0,0l-0.4-1.5v-0.1l-0.2-0.8l0,0l0,0l-2.3-2.4l0,0l2.1,4l0.1,0.2l0.2,0.5l0,0
			l-0.6-0.4l-1.3-0.9l-0.4-0.3c0.1,0.1,0.2,0.2,0.3,0.4l0,0c0.1,0.1,0.2,0.2,0.3,0.4c0,0.1,0.1,0.1,0.1,0.2c0.1,0.1,0.1,0.2,0.2,0.2
			c0.1,0.1,0.2,0.3,0.3,0.4l0.1,0.1c0.1,0.1,0.2,0.3,0.3,0.4l0.1,0.1l0.2,0.3l0.1,0.2c0.1,0,0.1-0.1,0.2-0.1L105.9,23.8z"/>
		<g>
			<path class="st0" d="M113.5,33.8c-0.7,0.4-1.4,0.7-2.1,1.1c0.4,0.2,0.9,0.5,1.3,0.7C113.1,35,113.4,34.4,113.5,33.8z"/>
			<path class="st0" d="M110.7,31.2c-0.9-0.4-1.8-0.8-2.6-1.2c-0.9,0.4-1.8,0.8-2.7,1.2c0.7,0.5,1.5,1,2.2,1.4
				C108.6,32.2,109.6,31.7,110.7,31.2z"/>
			<path class="st0" d="M113.8,31.7c0-0.5,0-1,0-1.4c-0.5,0.3-1.1,0.6-1.6,0.9C112.7,31.3,113.3,31.5,113.8,31.7z"/>
			<path class="st0" d="M102.5,29.1c0.7,0.6,1.5,1.1,2.2,1.6c0.9-0.4,1.7-0.7,2.6-1.2c-0.8-0.5-1.7-0.9-2.5-1.5
				C104.1,28.5,103.3,28.8,102.5,29.1z"/>
			<path class="st0" d="M105.6,27.9c0.8,0.5,1.6,1,2.5,1.4c0.8-0.4,1.6-0.8,2.4-1.3c-0.8-0.4-1.7-0.8-2.5-1.2
				C107.2,27.2,106.4,27.5,105.6,27.9z"/>
			<path class="st0" d="M104.1,25.8c-0.2,0.2-0.4,0.4-0.5,0.7c0.4,0.3,0.9,0.6,1.4,1c0.8-0.3,1.5-0.7,2.3-1
				c-0.8-0.4-1.6-0.9-2.4-1.3c-0.1,0.1-0.2,0.2-0.3,0.3C104.4,25.6,104.2,25.7,104.1,25.8z"/>
			<path class="st0" d="M107.4,24c-0.4,0-0.8,0.1-1.1,0.2c-0.1,0-0.3,0.1-0.4,0.1h-0.1l0,0c-0.1,0.1-0.3,0.1-0.4,0.2
				c0.8,0.5,1.7,1,2.6,1.4c1-0.4,1.9-0.9,2.9-1.3l0,0c-0.1-0.1-0.2-0.1-0.3-0.2c-0.2-0.1-0.3-0.2-0.5-0.2c-0.1,0-0.2-0.1-0.3-0.1
				c-0.2-0.1-0.4-0.1-0.6-0.2c-0.3-0.1-0.7-0.1-1-0.1h-0.1c-0.1,0-0.3,0-0.4,0h-0.1C107.5,24,107.4,24,107.4,24z"/>
			<path class="st0" d="M111.4,31.5c-1.1,0.5-2.1,1-3.2,1.5c0.9,0.5,1.7,1,2.6,1.5c1-0.5,2-1,2.9-1.5c0-0.2,0.1-0.5,0.1-0.7
				C113,32.1,112.2,31.8,111.4,31.5z"/>
			<path class="st0" d="M111.8,27.9c0.6,0.2,1.1,0.5,1.7,0.7c-0.1-0.5-0.3-1-0.5-1.4C112.6,27.5,112.2,27.7,111.8,27.9z"/>
			<path class="st0" d="M108.7,29.6c0.9,0.4,1.8,0.8,2.7,1.2c0.8-0.4,1.6-0.8,2.3-1.2c0-0.1,0-0.2,0-0.2c-0.8-0.3-1.7-0.7-2.5-1
				C110.3,28.8,109.5,29.2,108.7,29.6z"/>
			<path class="st0" d="M104.6,34.6c-0.5,0.2-1,0.4-1.5,0.6c0.4,0.8,1,1.5,1.7,2.1c0.8-0.3,1.5-0.6,2.3-1
				C106.2,35.7,105.4,35.2,104.6,34.6z"/>
			<path class="st0" d="M111.1,27.6c0.5-0.3,1.1-0.6,1.6-0.9c-0.2-0.4-0.5-0.8-0.8-1.1c-0.1-0.1-0.3-0.3-0.5-0.4
				c-0.9,0.4-1.8,0.9-2.7,1.3C109.5,26.9,110.3,27.3,111.1,27.6z"/>
			<path class="st0" d="M112.1,36.5c0.1-0.1,0.2-0.2,0.3-0.4c-0.6-0.3-1.1-0.6-1.6-0.9c-0.8,0.4-1.5,0.7-2.3,1.1
				c0.8,0.4,1.5,0.8,2.3,1.2C111.2,37.2,111.7,36.9,112.1,36.5z"/>
			<path class="st0" d="M110,37.9c-0.8-0.4-1.5-0.8-2.3-1.2c-0.8,0.3-1.6,0.7-2.3,1l0.1,0.1C107,38.4,108.6,38.4,110,37.9z"/>
			<path class="st0" d="M110.1,34.9c-0.9-0.5-1.7-1-2.6-1.5c-0.7,0.3-1.5,0.6-2.3,1c0.8,0.6,1.7,1.1,2.5,1.7
				C108.6,35.6,109.3,35.2,110.1,34.9z"/>
			<path class="st0" d="M106.9,32.9c-0.7-0.5-1.5-1-2.2-1.5c-0.7,0.3-1.4,0.5-2.1,0.7c0.7,0.6,1.3,1.1,2.1,1.6
				C105.4,33.6,106.1,33.3,106.9,32.9z"/>
			<path class="st0" d="M102.1,31.7c0.7-0.2,1.3-0.4,1.9-0.7c-0.6-0.4-1.2-0.9-1.8-1.4C102.1,30.3,102.1,31,102.1,31.7z"/>
			<path class="st0" d="M102.8,34.6c0.4-0.1,0.8-0.3,1.2-0.4c-0.6-0.4-1.2-0.9-1.7-1.4C102.4,33.4,102.6,34,102.8,34.6z"/>
			<path class="st0" d="M104.3,27.8c-0.4-0.2-0.7-0.5-1-0.7c-0.3,0.5-0.5,0.9-0.7,1.5C103.1,28.2,103.7,28,104.3,27.8z"/>
		</g>
	</g>
</g>
</svg>
